<svg width="36" height="36" viewBox="0 0 36 36" fill="none" xmlns="http://www.w3.org/2000/svg">
<path d="M30.0791 24.75H22.5791C21.7507 24.75 21.0791 25.4216 21.0791 26.25V30.75C21.0791 31.5784 21.7507 32.25 22.5791 32.25H30.0791C30.9075 32.25 31.5791 31.5784 31.5791 30.75V26.25C31.5791 25.4216 30.9075 24.75 30.0791 24.75Z" stroke="#212529" stroke-width="2" stroke-linecap="round" stroke-linejoin="round"/>
<path d="M23.7002 24.1498V21.9688C23.7002 21.2726 23.9768 20.6049 24.469 20.1126C24.9613 19.6203 25.629 19.3438 26.3252 19.3438C27.0214 19.3438 27.6891 19.6203 28.1814 20.1126C28.6736 20.6049 28.9502 21.2726 28.9502 21.9688V24.1498" stroke="#212529" stroke-width="2" stroke-linecap="round" stroke-linejoin="round"/>
<path d="M26.3291 27.75V29.25" stroke="#212529" stroke-width="2" stroke-linecap="round" stroke-linejoin="round"/>
<path d="M29.3219 15.7275C29.5422 13.7033 29.5487 11.6616 29.3414 9.636L29.0804 7.536L17.3339 3.375L5.58889 7.539L5.32639 9.639C5.23339 10.3395 3.28939 26.8275 16.1684 31.4625L17.3339 31.881" stroke="#212529" stroke-width="2" stroke-linecap="round" stroke-linejoin="round"/>
<path d="M12.6016 16.3395L16.0396 20.5425L22.0576 13.1865" stroke="#212529" stroke-width="2" stroke-linecap="round" stroke-linejoin="round"/>
</svg>
