<svg width="21" height="16" viewBox="0 0 21 16" fill="none" xmlns="http://www.w3.org/2000/svg">
<g clip-path="url(#clip0_3983_1979)">
<path d="M8.99945 15.0001C9.09318 14.9071 9.16757 14.7965 9.21834 14.6747C9.26911 14.5528 9.29525 14.4221 9.29525 14.2901C9.29525 14.1581 9.26911 14.0274 9.21834 13.9055C9.16757 13.7837 9.09318 13.6731 8.99945 13.5801L4.39945 8.9801L19.9395 8.9801C20.2047 8.9801 20.459 8.87474 20.6466 8.68721C20.8341 8.49967 20.9395 8.24532 20.9395 7.9801C20.9395 7.71488 20.8341 7.46053 20.6466 7.27299C20.459 7.08546 20.2047 6.9801 19.9395 6.9801L4.41945 6.9801L8.99945 2.4101C9.1857 2.22274 9.29025 1.96929 9.29025 1.7051C9.29025 1.44091 9.1857 1.18746 8.99945 1.0001C8.81209 0.813849 8.55864 0.709308 8.29445 0.709308C8.03027 0.709308 7.77682 0.813849 7.58945 1.0001L1.22945 7.3601C1.14385 7.44223 1.07574 7.54082 1.02921 7.64994C0.982679 7.75907 0.958694 7.87647 0.958694 7.9951C0.958694 8.11373 0.982679 8.23113 1.02921 8.34026C1.07574 8.44938 1.14385 8.54797 1.22945 8.6301L7.57945 15.0001C7.67242 15.0938 7.78302 15.1682 7.90488 15.219C8.02674 15.2698 8.15744 15.2959 8.28945 15.2959C8.42146 15.2959 8.55217 15.2698 8.67403 15.219C8.79589 15.1682 8.90649 15.0938 8.99945 15.0001Z" fill="white"/>
</g>
<defs>
<clipPath id="clip0_3983_1979">
<rect width="21" height="16" fill="white" transform="matrix(-1 0 0 -1 21 16)"/>
</clipPath>
</defs>
</svg>
