<?xml version="1.0" encoding="utf-8"?>
<!-- Generator: Adobe Illustrator 25.0.0, SVG Export Plug-In . SVG Version: 6.00 Build 0)  -->
<svg version="1.1" id="Layer_1" xmlns="http://www.w3.org/2000/svg" xmlns:xlink="http://www.w3.org/1999/xlink" x="0px" y="0px"
	 viewBox="0 0 20 11" style="enable-background:new 0 0 20 11;" xml:space="preserve">
<style type="text/css">
	.st0{fill-rule:evenodd;clip-rule:evenodd;fill-opacity:0.73;}
</style>
<path class="st0" d="M16.9,2.6C14.8,1,12.4,0,10,0C7.6,0,5.2,1,3.1,2.6c-0.7,0.6-1.4,1.1-2,1.7C0.7,4.7,0.4,5,0.3,5.1L0,5.5l0.3,0.4
	C0.4,6,0.7,6.3,1.1,6.7c0.6,0.6,1.3,1.2,2,1.7C5.2,10,7.6,11,10,11c2.4,0,4.8-1,6.9-2.6c0.7-0.6,1.4-1.1,2-1.7
	c0.4-0.4,0.6-0.6,0.7-0.8L20,5.5l-0.3-0.4c-0.1-0.2-0.4-0.4-0.7-0.8C18.4,3.7,17.7,3.2,16.9,2.6z"/>
</svg>
