<svg width="31" height="32" viewBox="0 0 31 32" fill="none" xmlns="http://www.w3.org/2000/svg">
<g clip-path="url(#clip0_3983_1395)">
<path fill-rule="evenodd" clip-rule="evenodd" d="M28.7857 21.1667H31V28.4C31 30.1091 29.5098 31.5 27.6786 31.5H3.32143C1.49021 31.5 0 30.1091 0 28.4V21.1667H2.21429V28.4C2.21429 28.9704 2.71139 29.4333 3.32143 29.4333H27.6786C28.2886 29.4333 28.7857 28.9704 28.7857 28.4V21.1667ZM28.7857 16C28.7857 16.5704 28.2886 17.0333 27.6786 17.0333H19.9286V13.9333H11.0714V17.0333H3.32143C2.71139 17.0333 2.21429 16.5704 2.21429 16V8.63853C4.47396 8.36883 10.3606 7.73333 15.5 7.73333C20.6394 7.73333 26.526 8.36883 28.7857 8.63853V16ZM17.7143 19.6156C17.3224 19.8347 16.5883 20.1333 15.5 20.1333C14.4084 20.1333 13.6732 19.8326 13.2857 19.6177V16H17.7143V19.6156ZM12.1786 3.2435C12.9204 2.9707 14.229 2.56667 15.5 2.56667C16.771 2.56667 18.0796 2.9707 18.8214 3.2435V5.74107C17.715 5.69371 16.6076 5.6689 15.5 5.66667C14.4061 5.66667 13.2868 5.6956 12.1786 5.74107V3.2435ZM30.0501 6.71033C29.8176 6.67933 25.7721 6.14717 21.0357 5.85577V1.92807L20.4235 1.64183C20.3238 1.59637 17.9468 0.5 15.5 0.5C13.0532 0.5 10.6762 1.59637 10.5765 1.64183L9.96428 1.92807V5.85577C5.22793 6.14717 1.18243 6.67933 0.949929 6.71033L0 6.83743V16C0 17.7091 1.49021 19.1 3.32143 19.1H11.0714V20.5611L11.3958 20.8639C11.542 21.0013 12.9015 22.2 15.5 22.2C18.0985 22.2 19.458 21.0013 19.6042 20.8639L19.9286 20.5611V19.1H27.6786C29.5098 19.1 31 17.7091 31 16V6.83743L30.0501 6.71033Z" fill="#212529"/>
</g>
<defs>
<clipPath id="clip0_3983_1395">
<rect width="31" height="31" fill="white" transform="translate(0 0.5)"/>
</clipPath>
</defs>
</svg>
