<svg width="19" height="19" viewBox="0 0 19 19" fill="none" xmlns="http://www.w3.org/2000/svg">
<path d="M-0.00390625 8.44444H8.07818V0H-0.00390625V8.44444ZM2.01662 2.11111H6.05766V6.33333H2.01662V2.11111Z" fill="#212529"/>
<path d="M-0.00390625 19H8.07818V10.5555H-0.00390625V19ZM2.01662 12.6667H6.05766V16.8889H2.01662V12.6667Z" fill="#212529"/>
<path d="M14.1402 10.5555C13.3409 10.5555 12.5596 10.8032 11.8951 11.2671C11.2305 11.7311 10.7126 12.3905 10.4067 13.162C10.1009 13.9335 10.0208 14.7824 10.1768 15.6015C10.3327 16.4205 10.7176 17.1728 11.2827 17.7633C11.8479 18.3538 12.5679 18.7559 13.3518 18.9189C14.1357 19.0818 14.9482 18.9982 15.6866 18.6786C16.425 18.359 17.0561 17.8178 17.5002 17.1235C17.9442 16.4292 18.1812 15.6128 18.1812 14.7778C18.1812 13.658 17.7555 12.584 16.9976 11.7922C16.2398 11.0004 15.2119 10.5555 14.1402 10.5555ZM14.1402 16.8889C13.7405 16.8889 13.3499 16.7651 13.0176 16.5331C12.6854 16.3011 12.4264 15.9714 12.2734 15.5857C12.1205 15.1999 12.0805 14.7754 12.1585 14.3659C12.2364 13.9564 12.4289 13.5802 12.7114 13.285C12.994 12.9897 13.354 12.7887 13.746 12.7072C14.1379 12.6258 14.5442 12.6676 14.9134 12.8274C15.2826 12.9871 15.5982 13.2577 15.8202 13.6049C16.0422 13.9521 16.1607 14.3602 16.1607 14.7778C16.1607 15.3377 15.9478 15.8746 15.5689 16.2705C15.19 16.6665 14.676 16.8889 14.1402 16.8889Z" fill="#212529"/>
<path d="M10.0991 0V8.44444H18.1812V0H10.0991ZM16.1607 6.33333H12.1196V2.11111H16.1607V6.33333Z" fill="#212529"/>
</svg>
