<svg width="30" height="30" viewBox="0 0 30 30" fill="none" xmlns="http://www.w3.org/2000/svg">
<path fill-rule="evenodd" clip-rule="evenodd" d="M14.85 29.7C6.64857 29.7 0 23.0514 0 14.85C0 6.64857 6.64857 0 14.85 0C23.0514 0 29.7 6.64857 29.7 14.85C29.7 23.0514 23.0514 29.7 14.85 29.7ZM14.85 27C21.5603 27 27 21.5603 27 14.85C27 8.13974 21.5603 2.7 14.85 2.7C8.13974 2.7 2.7 8.13974 2.7 14.85C2.7 21.5603 8.13974 27 14.85 27ZM10.4046 21.2046L14.85 16.7592L19.2954 21.2046L21.2046 19.2954L16.7592 14.85L21.2046 10.4046L19.2954 8.49541L14.85 12.9408L10.4046 8.49541L8.49541 10.4046L12.9408 14.85L8.49541 19.2954L10.4046 21.2046Z" fill="#FE4848"/>
</svg>
