<svg width="14" height="20" viewBox="0 0 14 20" fill="none" xmlns="http://www.w3.org/2000/svg">
<path d="M12.2364 8.40234V10.7125H1.78163V8.40234H0.288086V12.2526H13.7299V8.40234H12.2364Z" fill="white"/>
<path d="M12.0182 4.24402L10.9622 3.15517L7.75633 6.46098V0.113281H6.26279V6.46098L3.05691 3.15517L2.00098 4.24402L7.00956 9.40873L12.0182 4.24402Z" fill="white"/>
<path d="M0.28418 15.0354C0.28418 16.9368 3.26499 16.5611 3.26499 17.5655C3.26499 17.9488 2.87585 18.0791 2.24544 18.0791C1.62282 18.0791 0.937935 17.9181 0.315311 17.5118V18.6082C0.875672 18.9148 1.57612 19.0912 2.33106 19.0912C3.47513 19.0912 4.45576 18.7155 4.45576 17.5118C4.45576 15.6028 1.47495 15.9478 1.47495 15.0201C1.47495 14.6904 1.77069 14.5294 2.36219 14.5218C2.96924 14.5141 3.58409 14.6751 4.04327 14.9971V13.9238C3.5763 13.6631 2.92255 13.5098 2.27658 13.5098C1.20255 13.5098 0.28418 14.0004 0.28418 15.0354Z" fill="white"/>
<path d="M4.69435 13.6171V14.6521H6.36765V18.9838H7.52729V14.6521H9.20059V13.6171H4.69435Z" fill="white"/>
<path d="M9.88912 13.6171V18.9838H13.726V17.9488H11.0565V13.6171H9.88912Z" fill="white"/>
</svg>
