<svg width="14" height="20" viewBox="0 0 14 20" fill="none" xmlns="http://www.w3.org/2000/svg">
<path d="M12.2325 8.44141V10.7596H1.77772V8.44141H0.28418V12.305H13.726V8.44141H12.2325Z" fill="white"/>
<path d="M12.0113 4.26031L10.9554 3.16769L7.7495 6.48498V0.115234H6.25596V6.48498L3.05007 3.16769L1.99414 4.26031L7.00273 9.44296L12.0113 4.26031Z" fill="white"/>
<path d="M0.28418 14.1191V19.2032H1.33704V17.5327H2.13721C3.32342 17.5327 4.25695 17.1405 4.25695 15.8259C4.25695 14.5113 3.32342 14.1191 2.13721 14.1191H0.28418ZM3.18304 15.8259C3.18304 16.4215 2.7268 16.574 2.18634 16.574H1.33704V15.0779H2.18634C2.7268 15.0779 3.18304 15.2231 3.18304 15.8259Z" fill="white"/>
<path d="M4.95897 14.1191V19.2032H6.79795C8.54569 19.2032 9.37394 18.1356 9.37394 16.6612C9.37394 15.1868 8.54569 14.1191 6.79795 14.1191H4.95897ZM8.30003 16.6612C8.30003 17.707 7.7736 18.2445 6.79795 18.2445H6.01182V15.0779H6.79795C7.7736 15.0779 8.30003 15.6153 8.30003 16.6612Z" fill="white"/>
<path d="M10.1684 14.1191V19.2032H11.2213V17.264H13.4323V16.2835H11.2213V15.0996H13.6358V14.1191H10.1684Z" fill="white"/>
</svg>
