<svg width="30" height="30" viewBox="0 0 30 30" fill="none" xmlns="http://www.w3.org/2000/svg">
<path fill-rule="evenodd" clip-rule="evenodd" d="M15 30C6.71573 30 0 23.2843 0 15C0 6.71573 6.71573 0 15 0C23.2843 0 30 6.71573 30 15C30 23.2843 23.2843 30 15 30ZM15 27.2727C21.778 27.2727 27.2727 21.778 27.2727 15C27.2727 8.22196 21.778 2.72727 15 2.72727C8.22196 2.72727 2.72727 8.22196 2.72727 15C2.72727 21.778 8.22196 27.2727 15 27.2727ZM19.4903 9.94485L12.2727 17.1624L9.14606 14.0358L7.21758 15.9642L12.2727 21.0194L21.4188 11.8733L19.4903 9.94485Z" fill="#4AEAA6"/>
</svg>
