<?xml version="1.0" encoding="utf-8"?>
<svg version="1.1" id="Layer_1" xmlns="http://www.w3.org/2000/svg" xmlns:xlink="http://www.w3.org/1999/xlink" x="0px" y="0px"
	 viewBox="0 0 20 11" style="enable-background:new 0 0 20 11;" xml:space="preserve">
<style type="text/css">
	.st0{fill-rule:evenodd;clip-rule:evenodd;fill-opacity:0.73;}
</style>
<path class="st0" d="M10,8.2C8,8.2,6.4,7,6.4,5.5S8,2.8,10,2.8c2,0,3.6,1.2,3.6,2.8S12,8.2,10,8.2z"/>
<path class="st0" d="M16.9,2.6C14.8,1,12.4,0,10,0C7.6,0,5.2,1,3.1,2.6c-0.7,0.6-1.4,1.1-2,1.7C0.7,4.7,0.4,5,0.3,5.1L0,5.5l0.3,0.4
	C0.4,6,0.7,6.3,1.1,6.7c0.6,0.6,1.3,1.2,2,1.7C5.2,10,7.6,11,10,11c2.4,0,4.8-1,6.9-2.6c0.7-0.6,1.4-1.1,2-1.7
	c0.4-0.4,0.6-0.6,0.7-0.8L20,5.5l-0.3-0.4c-0.1-0.2-0.4-0.4-0.7-0.8C18.4,3.7,17.7,3.2,16.9,2.6z M15.7,3.6c0.7,0.5,1.3,1,1.8,1.6
	c0.1,0.1,0.2,0.2,0.3,0.3c-0.1,0.1-0.2,0.2-0.3,0.3c-0.5,0.5-1.2,1.1-1.8,1.6c-1.9,1.4-3.8,2.2-5.7,2.2c-1.9,0-3.8-0.8-5.7-2.2
	C3.6,6.9,3,6.4,2.5,5.8C2.4,5.7,2.2,5.6,2.1,5.5c0.1-0.1,0.2-0.2,0.3-0.3C3,4.6,3.6,4.1,4.3,3.6C6.2,2.2,8.1,1.4,10,1.4
	C11.9,1.4,13.8,2.2,15.7,3.6z"/>
</svg>
