<svg width="27" height="15" viewBox="0 0 27 15" fill="none" xmlns="http://www.w3.org/2000/svg">
<path fill-rule="evenodd" clip-rule="evenodd" d="M13.5005 0.5C16.5689 0.5 19.5031 1.7518 22.2375 3.80851C23.1704 4.51017 24.0144 5.25926 24.7573 6.00867C25.2056 6.46088 25.5239 6.81662 25.6982 7.02855L26.0859 7.5L25.6982 7.97145C25.5239 8.18338 25.2056 8.53911 24.7573 8.99133C24.0144 9.74074 23.1704 10.4898 22.2375 11.1915C19.5031 13.2482 16.5689 14.5 13.5005 14.5C10.432 14.5 7.49781 13.2482 4.76338 11.1915C3.83051 10.4898 2.98655 9.74074 2.2436 8.99133C1.79529 8.53911 1.47699 8.18338 1.30271 7.97145L0.915039 7.5L1.30271 7.02855C1.47699 6.81662 1.79529 6.46088 2.2436 6.00867C2.98655 5.25926 3.83051 4.51017 4.76338 3.80851C7.49781 1.7518 10.432 0.5 13.5005 0.5ZM22.9755 7.07727C22.2953 6.39113 21.5219 5.70468 20.6734 5.06649C18.3183 3.29508 15.8687 2.25 13.5005 2.25C11.1322 2.25 8.68263 3.29508 6.3275 5.06649C5.47902 5.70468 4.70564 6.39113 4.02542 7.07727C3.87851 7.22546 3.74275 7.36684 3.61864 7.5C3.74275 7.63316 3.87851 7.77454 4.02542 7.92273C4.70564 8.60887 5.47902 9.29532 6.3275 9.93351C8.68263 11.7049 11.1322 12.75 13.5005 12.75C15.8687 12.75 18.3183 11.7049 20.6734 9.93351C21.5219 9.29532 22.2953 8.60887 22.9755 7.92273C23.1224 7.77454 23.2582 7.63316 23.3823 7.5C23.2582 7.36684 23.1224 7.22546 22.9755 7.07727ZM9.00045 7.5C9.00045 9.433 11.0152 11 13.5005 11C15.9857 11 18.0005 9.433 18.0005 7.5C18.0005 5.567 15.9857 4 13.5005 4C11.0152 4 9.00045 5.567 9.00045 7.5ZM15.7505 7.5C15.7505 8.4665 14.7431 9.25 13.5005 9.25C12.2578 9.25 11.2505 8.4665 11.2505 7.5C11.2505 6.5335 12.2578 5.75 13.5005 5.75C14.7431 5.75 15.7505 6.5335 15.7505 7.5Z" fill="#3D4044"/>
</svg>
