<svg width="35" height="26" viewBox="0 0 35 26" fill="none" xmlns="http://www.w3.org/2000/svg">
<g clip-path="url(#clip0_4857_20247)">
<path d="M20.95 0.696829C20.7254 0.921412 20.6506 2.39367 20.6506 5.78736V10.6034L19.6774 11.4019C19.1533 11.8511 17.8558 12.6995 16.7828 13.2734L14.8613 14.3215L15.5351 14.7707C16.2088 15.2198 16.2338 15.2198 17.8308 14.3714C19.7772 13.3234 21.2744 12.1006 21.7735 11.1025C22.0729 10.5535 22.1478 9.33078 22.1478 5.56278C22.1478 1.34562 22.0979 0.671875 21.7485 0.547107C21.2495 0.347478 21.2994 0.347478 20.95 0.696829Z" fill="white"/>
<path d="M31.1564 0.722548C31.0067 0.922176 30.7571 2.69388 30.6074 4.66522L30.308 8.25854L31.3311 12.4008C32.9281 18.8638 32.9032 20.1115 31.1314 21.3093C30.308 21.8832 30.0834 21.9082 27.6878 21.7834L25.1426 21.6586L26.2405 22.507C27.2137 23.2557 27.5381 23.3555 28.8108 23.3555C31.4309 23.3305 33.2026 22.1078 33.7765 19.8869C34.1758 18.3398 34.0011 17.0173 32.7784 12.2012C31.8052 8.40826 31.7303 7.21049 32.1545 3.4924C32.3542 1.69574 32.3292 1.02199 32.1046 0.747501C31.7553 0.298338 31.5307 0.298338 31.1564 0.722548Z" fill="white"/>
<path d="M27.9622 10.9031C27.8124 11.0528 27.7376 11.6018 27.8124 12.1009C27.9122 12.8495 27.8124 13.1739 27.2635 13.8476C26.6396 14.5713 26.6147 14.696 26.9391 15.0454C27.4381 15.5444 28.2366 15.1452 28.8854 14.0472C29.9085 12.4003 29.11 9.75521 27.9622 10.9031Z" fill="white"/>
<path d="M13.2651 14.8956C13.0654 15.22 12.0423 14.3965 22.8473 22.6811C24.7437 24.1284 25.5173 24.5776 25.7169 24.378C25.8666 24.2283 25.9415 24.0785 25.8666 24.0286C25.0182 23.305 13.6144 14.6211 13.5396 14.6211C13.4897 14.6211 13.3649 14.7459 13.2651 14.8956Z" fill="white"/>
<path d="M9.64633 18.2648C8.17407 18.714 5.65375 19.3628 4.05672 19.7121C2.43474 20.0365 0.962477 20.4857 0.737894 20.6853C0.313683 21.1095 0.488358 22.6317 1.01238 23.0559C1.4865 23.4552 11.7674 25.127 14.7119 25.2768C17.2821 25.4265 17.4069 25.4015 18.5797 24.7278C20.052 23.8544 21.3995 22.8563 21.3995 22.6317C21.3995 22.5319 21.125 22.3073 20.8255 22.1326C20.3015 21.8581 20.0769 21.933 18.6546 22.8313C17.3071 23.7047 16.8829 23.8544 15.76 23.8544C13.564 23.8544 1.91071 22.0328 2.21016 21.7334C2.26006 21.6834 3.65747 21.359 5.3044 20.9847C8.47351 20.286 13.6389 18.714 14.0132 18.3397C14.3376 18.0402 13.4393 17.3665 12.7905 17.3914C12.516 17.4164 11.0936 17.7907 9.64633 18.2648Z" fill="white"/>
</g>
<defs>
<clipPath id="clip0_4857_20247">
<rect width="34" height="25.1852" fill="white" transform="translate(0.5 0.407227)"/>
</clipPath>
</defs>
</svg>
