<svg width="22" height="17" viewBox="0 0 22 17" fill="none" xmlns="http://www.w3.org/2000/svg">
<g clip-path="url(#clip0_2783_7994)">
<path d="M19.2001 1.22754C19.2001 1.22754 18.8063 4.25808 18.8063 5.6519C18.8063 7.04572 20.291 11.1668 20.291 12.8639C20.291 14.561 19.2001 15.773 17.3819 15.773C15.1699 15.773 13.5336 15.0457 12.291 15.0457C10.2001 15.0457 8.89683 15.773 6.83647 15.773C5.35174 15.773 4.65465 15.4094 4.29102 15.4094C3.92738 15.4094 3.32156 15.773 2.47283 15.773C1.71138 15.773 0.654651 15.4246 0.654651 14.1308C0.654651 13.9944 0.707378 13.8595 0.792105 13.7534C0.877196 13.6472 1.00047 13.5654 1.13647 13.5654C3.92738 13.5654 6.24374 11.273 7.56374 10.6821C9.72883 9.71227 12.291 8.5159 12.291 7.04572V1.22754" stroke="white" stroke-miterlimit="10" stroke-linecap="round" stroke-linejoin="round"/>
<path d="M17.0187 8.13574C17.3777 8.93647 17.0329 9.84847 16.2915 10.3176" stroke="white" stroke-miterlimit="10" stroke-linecap="round" stroke-linejoin="round"/>
</g>
<defs>
<clipPath id="clip0_2783_7994">
<rect width="21.3333" height="16" fill="white" transform="matrix(-1 0 0 1 21.3335 0.5)"/>
</clipPath>
</defs>
</svg>
