<svg width="17" height="20" viewBox="0 0 17 20" fill="none" xmlns="http://www.w3.org/2000/svg">
<path d="M17 5.84375C17 2.60313 14.3969 0 11.1562 0H2.125C2.07188 0 2.01875 0 1.96562 0C1.9125 0 1.85937 0 1.80625 0C0.85 0 0 0.85 0 1.85938V6.10937C0 7.11875 0.85 7.96875 1.85938 7.96875C1.9125 7.96875 1.96563 7.96875 2.01875 7.96875C2.07188 7.96875 2.125 7.96875 2.17813 7.96875H7.49063V8.925C7.49063 9.5625 7.225 10.1469 6.8 10.5719C6.53437 10.8375 6.42813 11.1562 6.42813 11.475C6.42813 12.1656 7.0125 12.75 7.70313 12.75H9.775L10.8375 15.8844C10.8906 16.0438 10.8375 16.15 10.7844 16.2562C10.625 16.4156 10.5188 16.4688 10.3594 16.4688C9.61563 16.4688 9.03125 17.0531 9.03125 17.7969C9.03125 18.5406 9.61563 19.125 10.3594 19.125H15.0875C16.15 19.125 17 18.275 17 17.2125C17 17 16.9469 16.7875 16.8937 16.6281L14.025 7.96875H14.875C16.0438 7.96875 17 7.0125 17 5.84375ZM11.1562 1.0625C13.2281 1.0625 14.9813 2.39062 15.6719 4.25H7.4375C5.57813 4.25 4.0375 2.86875 3.77188 1.0625H11.1562ZM2.65625 6.10937C2.65625 6.48125 2.39062 6.8 1.96562 6.90625C1.43437 6.85312 1.00937 6.375 1.00937 5.84375V2.125C1.00937 1.59375 1.43437 1.11562 1.96562 1.0625C2.39062 1.11562 2.65625 1.4875 2.65625 1.85938V6.10937ZM7.65 11.6875C7.54375 11.6875 7.4375 11.5812 7.4375 11.475C7.4375 11.4219 7.4375 11.3687 7.49063 11.3156C8.075 10.7312 8.44688 9.93437 8.5 9.08437L9.35 11.6875H7.65ZM15.8844 16.9469C15.8844 17.0531 15.9375 17.1062 15.9375 17.2125C15.9375 17.6906 15.5656 18.0625 15.0875 18.0625H10.3594C10.2 18.0625 10.0938 17.9562 10.0938 17.7969C10.0938 17.6375 10.2 17.5312 10.3594 17.5312C10.8375 17.5312 11.2625 17.3187 11.5813 16.8937C11.8469 16.5219 11.9531 15.9906 11.7938 15.5656L10.625 12.1125C10.625 12.0594 10.625 12.0594 10.5719 12.0063L9.24375 7.96875H12.9094L15.8844 16.9469ZM3.55938 6.90625C3.66563 6.64062 3.71875 6.375 3.71875 6.10937V3.50625C4.62188 4.56875 5.95 5.3125 7.4375 5.3125H15.8844C15.8844 5.47187 15.9375 5.68437 15.9375 5.84375C15.9375 6.42812 15.4594 6.90625 14.875 6.90625H3.55938Z" fill="#212529"/>
</svg>
