<svg width="37" height="36" viewBox="0 0 37 36" fill="none" xmlns="http://www.w3.org/2000/svg">
<g clip-path="url(#clip0_3085_13983)">
<path d="M5.13161 35.5101C4.5813 35.5101 4.02499 35.2682 3.60533 34.8462C3.18254 34.4209 2.94196 33.8582 2.945 33.3021C2.96416 29.9071 2.96112 26.4698 2.95816 23.1459L2.95807 23.0422C2.95701 21.8213 2.95594 20.6006 2.95594 19.3796V18.7653L2.95388 18.7656L2.76362 18.7808C2.64062 18.7903 2.5311 18.799 2.42174 18.8096C2.32406 18.819 2.22803 18.8237 2.13528 18.8237C0.938131 18.8238 0.125943 18.0526 0.0157662 16.8112C-0.0815022 15.7146 0.270572 14.837 1.09213 14.1283C5.32105 10.4802 9.59067 6.77853 13.7196 3.19876L16.5484 0.74641C17.1117 0.258094 17.7817 0 18.4863 0C19.21 0 19.9019 0.269687 20.4873 0.779792C22.9166 2.89668 25.3895 5.03683 27.781 7.10652C28.6908 7.89379 29.6006 8.68115 30.51 9.46891C31.0382 9.9264 31.5668 10.3836 32.0953 10.8409L32.272 10.9938C33.517 12.0707 34.8042 13.1841 36.0733 14.2895C37.0801 15.1664 37.3034 16.8593 36.5611 17.9864C36.1871 18.5543 35.6303 18.8189 34.8088 18.8189C34.7467 18.8189 34.6842 18.8174 34.6214 18.8147C34.5015 18.8096 34.379 18.7963 34.2493 18.7823C34.1807 18.7749 34.1116 18.7675 34.0375 18.7605L34.0366 22.796C34.0356 26.2227 34.0346 29.7659 34.0392 33.2833C34.0403 34.1247 33.6947 34.7599 33.0119 35.1712C32.6961 35.3615 32.3009 35.4768 31.9547 35.4795C30.4962 35.4906 28.9496 35.4954 26.9397 35.4954C26.0232 35.4954 25.1068 35.4945 24.1902 35.4936L22.6603 35.492C22.6047 35.492 22.5502 35.4897 22.4989 35.4854C22.1051 35.4518 21.7908 35.1426 21.7508 34.7493C21.7445 34.6882 21.7414 34.6213 21.7414 34.5504L21.7425 21.8939L15.2436 21.894L15.2435 34.4951C15.2435 34.5838 15.24 34.6658 15.2334 34.7388C15.1972 35.1321 14.8865 35.4441 14.4934 35.4819C14.4169 35.4893 14.331 35.493 14.238 35.493H14.141C13.2907 35.493 12.4405 35.4905 11.5902 35.4879C10.74 35.4852 9.89003 35.4827 9.03986 35.4827C7.52525 35.4827 6.2934 35.4912 5.16318 35.5097L5.14238 35.51C5.13885 35.5101 5.13523 35.5101 5.13161 35.5101ZM2.9561 17.1207C3.37025 17.1207 3.76599 17.2752 4.07037 17.5558C4.40732 17.8665 4.60046 18.3072 4.60046 18.7652V19.3796C4.60046 20.6001 4.60153 21.8204 4.60259 23.0407L4.60268 23.1444C4.60564 26.4711 4.60868 29.9111 4.58952 33.3114C4.58886 33.4293 4.65859 33.5732 4.7714 33.6866C4.90081 33.8168 5.03969 33.8643 5.12799 33.8656L5.13901 33.8655C6.27581 33.8469 7.51613 33.8382 9.03994 33.8382C9.89176 33.8382 10.7436 33.8407 11.5955 33.8434C12.2635 33.8455 12.9313 33.8475 13.5992 33.8483L13.5993 21.8941C13.5993 20.9874 14.337 20.2497 15.2437 20.2497H21.7426C22.6494 20.2497 23.3871 20.9874 23.3871 21.8941L23.3861 33.8483L24.1922 33.8493C25.1081 33.8502 26.024 33.8511 26.94 33.8511C28.9457 33.8511 30.4883 33.8461 31.9421 33.8352C31.9778 33.8349 32.0857 33.8096 32.1636 33.7628C32.2994 33.6809 32.3954 33.5988 32.395 33.2856C32.3903 29.7668 32.3914 26.2229 32.3924 22.7957L32.3932 18.7603C32.3932 18.2981 32.5895 17.8546 32.9316 17.5438C33.2347 17.2681 33.6277 17.1161 34.038 17.1161C34.0898 17.1161 34.1423 17.1186 34.1938 17.1235C34.2748 17.1312 34.3505 17.1393 34.4224 17.147C34.5328 17.159 34.6253 17.1689 34.6919 17.1718C34.7308 17.1734 34.7701 17.1744 34.8091 17.1744C35.0785 17.1744 35.1513 17.1295 35.1513 17.1295C35.1513 17.1295 35.1631 17.1197 35.1879 17.0819C35.4801 16.6382 35.3838 15.8693 34.9936 15.5295C33.7266 14.426 32.4404 13.3134 31.1964 12.2375L31.0197 12.0846C30.4908 11.6272 29.9621 11.1698 29.4335 10.7119C28.5243 9.92426 27.6148 9.13715 26.7051 8.35004C24.3125 6.27945 21.8385 4.13839 19.4071 2.01953C19.1254 1.7741 18.8072 1.64444 18.4865 1.64444C18.1833 1.64444 17.8857 1.76358 17.6258 1.98886L14.797 4.44121C10.6673 8.02173 6.39692 11.7241 2.16644 15.3734C1.74177 15.7397 1.60289 16.09 1.65395 16.6657C1.69926 17.1761 1.89906 17.1792 2.13117 17.1792C2.17491 17.1798 2.218 17.1772 2.26429 17.1727C2.38236 17.1613 2.50166 17.1517 2.63429 17.1414L2.8192 17.1266C2.86352 17.1227 2.90956 17.1207 2.9561 17.1207Z" fill="#212529"/>
</g>
<defs>
<clipPath id="clip0_3085_13983">
<rect width="37" height="36" fill="white"/>
</clipPath>
</defs>
</svg>
