<svg width="24" height="24" viewBox="0 0 24 24" fill="none" xmlns="http://www.w3.org/2000/svg">
<rect width="24" height="24" rx="12" fill="#8C939B"/>
<path d="M7.05859 11.5259H11.1966V7.05859H7.05859V11.5259ZM8.09309 8.17542H10.1621V10.4091H8.09309V8.17542Z" fill="white"/>
<path d="M7.05859 17.1109H11.1966V12.6436H7.05859V17.1109ZM8.09309 13.7604H10.1621V15.994H8.09309V13.7604Z" fill="white"/>
<path d="M14.3004 12.6436C13.8912 12.6436 13.4912 12.7746 13.151 13.02C12.8107 13.2654 12.5455 13.6143 12.3889 14.0224C12.2323 14.4306 12.1914 14.8797 12.2712 15.313C12.351 15.7463 12.5481 16.1442 12.8374 16.4566C13.1268 16.769 13.4955 16.9817 13.8968 17.0679C14.2981 17.1541 14.7142 17.1099 15.0922 16.9408C15.4703 16.7718 15.7934 16.4855 16.0207 16.1182C16.2481 15.7508 16.3694 15.319 16.3694 14.8772C16.3694 14.2848 16.1515 13.7167 15.7634 13.2978C15.3754 12.8789 14.8492 12.6436 14.3004 12.6436ZM14.3004 15.994C14.0958 15.994 13.8958 15.9285 13.7257 15.8058C13.5556 15.6831 13.423 15.5087 13.3447 15.3046C13.2664 15.1005 13.2459 14.876 13.2858 14.6593C13.3257 14.4427 13.4243 14.2437 13.5689 14.0875C13.7136 13.9313 13.8979 13.8249 14.0986 13.7818C14.2993 13.7387 14.5073 13.7609 14.6963 13.8454C14.8854 13.9299 15.0469 14.0731 15.1606 14.2567C15.2743 14.4404 15.3349 14.6563 15.3349 14.8772C15.3349 15.1734 15.2259 15.4575 15.0319 15.6669C14.8379 15.8764 14.5748 15.994 14.3004 15.994Z" fill="white"/>
<path d="M12.2314 7.05859V11.5259H16.3694V7.05859H12.2314ZM15.3349 10.4091H13.2659V8.17542H15.3349V10.4091Z" fill="white"/>
</svg>
