<svg width="24" height="15" viewBox="0 0 24 15" fill="none" xmlns="http://www.w3.org/2000/svg">
<path d="M20.9191 0.0283203C21.1492 0.116622 21.2536 0.194735 21.3292 0.434169C21.7647 1.81389 22.1918 3.21398 22.6995 4.57332C22.9364 5.23474 23.2913 5.81974 23.4747 6.50323C23.687 7.25294 23.7727 8.12153 23.4042 8.83643C23.1207 9.407 22.5875 9.77125 21.9948 9.96568C21.4361 10.1516 20.8766 10.1822 20.2933 10.1949C19.4782 10.1966 18.6427 10.4743 17.9041 10.8028C16.2569 11.5466 14.8118 12.6835 13.3225 13.6896C12.7469 14.0641 12.1271 14.4818 11.4487 14.6321H10.1004C7.05821 14.3035 4.03217 13.7499 1.01887 13.2244C0.808302 13.1777 0.527264 13.1641 0.393113 12.9688C0.184245 12.6793 0.0517925 12.3295 0 11.9771V11.7674C0.0619811 11.3624 0.292075 11.0992 0.695377 11.0117C3.43613 10.5133 6.10642 9.88587 8.72406 8.92049C9.12991 8.77615 9.38123 8.4603 9.61726 8.11813C10.1309 7.34125 10.4273 6.39794 10.6667 5.50304C10.8925 4.59794 11.0683 3.67757 11.1702 2.74955C11.1965 2.57889 11.2092 2.40992 11.34 2.28172C11.458 2.1637 11.6474 2.13738 11.8044 2.11021C13.3888 1.8903 14.9697 1.64917 16.5524 1.42672C16.9166 1.37577 17.2656 1.22209 17.6205 1.10323C18.6563 0.74832 19.6879 0.378981 20.7255 0.0283203H20.9191ZM20.4657 1.24757C19.6073 1.54049 18.7514 1.84191 17.8947 2.13908C17.533 2.26219 17.1917 2.40908 16.8147 2.46257C15.2754 2.68757 13.7343 2.90408 12.1958 3.13587C12.0099 4.55634 11.717 5.99209 11.2025 7.33191C10.9121 8.07992 10.5045 8.88059 9.90594 9.42738C9.6283 9.68974 9.29292 9.85785 8.93462 9.98181C6.75 10.7714 4.48387 11.3564 2.2067 11.8073C1.82038 11.8871 1.43491 11.944 1.05283 12.0433C1.17255 12.1427 1.26509 12.1894 1.42047 12.214C3.94642 12.658 6.4783 13.1046 9.02123 13.4375C9.63425 13.5113 10.2507 13.5903 10.8671 13.6132C11.4045 13.6506 11.9513 13.2863 12.3945 13.018C14.0918 11.9075 15.7186 10.5804 17.6239 9.75766C18.4687 9.39766 19.3704 9.137 20.2942 9.13191C20.8842 9.11577 21.5516 9.08775 22.0653 8.76087C22.3896 8.55455 22.5688 8.22511 22.5875 7.84304C22.6301 7.11794 22.3549 6.45446 22.0634 5.80992L21.9384 5.53472L21.8768 5.39775C21.3359 4.04181 20.9072 2.63747 20.4657 1.24757Z" fill="white"/>
</svg>
