<svg width="15" height="15" viewBox="0 0 15 15" fill="none" xmlns="http://www.w3.org/2000/svg">
<g opacity="0.6">
<path d="M10.4641 3.40556C9.79449 2.80997 8.97709 2.40531 8.09747 2.2339C7.21784 2.0625 6.30831 2.13067 5.46406 2.43126C4.6198 2.73186 3.87185 3.25384 3.29848 3.94258C2.7251 4.63132 2.34738 5.46151 2.20483 6.34627C2.06269 7.21554 2.15398 8.10696 2.46936 8.92937C2.78475 9.75177 3.31291 10.4757 3.99983 11.027C4.08669 11.0941 4.15744 11.1798 4.20688 11.2778C4.25632 11.3758 4.28319 11.4837 4.28554 11.5934V14.9998H9.99983V11.592C10.0002 11.486 10.0244 11.3815 10.0707 11.2862C10.1169 11.1909 10.184 11.1072 10.267 11.0413C10.8352 10.587 11.2974 10.014 11.6211 9.36248C11.9448 8.71093 12.1222 7.99654 12.141 7.26925C12.1598 6.54197 12.0194 5.81937 11.7298 5.15199C11.4401 4.48461 11.0082 3.88857 10.4641 3.40556ZM8.57126 13.5713H5.71412V12.857H8.57126V13.5713ZM9.37412 9.92841C9.14533 10.1102 8.95652 10.3373 8.81948 10.5954C8.68244 10.8535 8.60013 11.1371 8.57769 11.4284H5.70769C5.68302 11.1345 5.59851 10.8487 5.45933 10.5887C5.32016 10.3287 5.12927 10.0998 4.8984 9.91627C4.40648 9.52172 4.02822 9.00357 3.80231 8.41483C3.5764 7.82609 3.51096 7.18789 3.61269 6.56556C3.74155 5.80467 4.11162 5.10536 4.66826 4.57084C5.2249 4.03632 5.93863 3.69491 6.70412 3.59699C7.47545 3.50203 8.2567 3.66126 8.92935 4.05052C9.60199 4.43978 10.1293 5.03783 10.4313 5.75391C10.7333 6.47 10.7934 7.26504 10.6026 8.01842C10.4118 8.77179 9.98052 9.44237 9.37412 9.92841Z" fill="#212529"/>
<path d="M14.2855 4.28613H12.8569V5.7147H14.2855V4.28613Z" fill="#212529"/>
<path d="M1.42857 4.28613H0V5.7147H1.42857V4.28613Z" fill="#212529"/>
<path d="M7.85728 0H6.42871V1.42857H7.85728V0Z" fill="#212529"/>
</g>
</svg>
