<svg width="12" height="12" viewBox="0 0 12 12" fill="none" xmlns="http://www.w3.org/2000/svg">
<path d="M11.547 4.91536C11.8088 4.96036 12 5.18727 12 5.45291V6.54709C12 6.81273 11.8088 7.03964 11.547 7.08464L10.6023 7.24718C10.4945 7.64564 10.338 8.02336 10.1367 8.37327L10.6893 9.15545C10.8425 9.37227 10.8172 9.66818 10.6295 9.85582L9.85582 10.6295C9.66791 10.8175 9.37227 10.8425 9.15545 10.6893L8.37327 10.137C8.02336 10.3383 7.64564 10.4945 7.24718 10.6025L7.08464 11.5473C7.03964 11.8088 6.81273 12 6.54709 12H5.45291C5.18727 12 4.96036 11.8088 4.91536 11.547L4.75282 10.6023C4.35436 10.4945 3.97664 10.338 3.62673 10.1367L2.84455 10.689C2.62773 10.8423 2.33182 10.8169 2.14418 10.6293L1.37045 9.85555C1.18282 9.66764 1.15745 9.372 1.31073 9.15518L1.86327 8.373C1.662 8.02309 1.50545 7.64536 1.39773 7.24691L0.453 7.08436C0.191182 7.03964 0 6.81273 0 6.54709V5.45291C0 5.18727 0.191182 4.96036 0.453 4.91536L1.39773 4.75282C1.50545 4.35436 1.662 3.97664 1.86327 3.62673L1.31073 2.84455C1.15745 2.62773 1.18282 2.33182 1.37045 2.14418L2.14418 1.37045C2.33209 1.18282 2.62773 1.15745 2.84455 1.31073L3.62673 1.86327C3.97664 1.662 4.35436 1.50573 4.75282 1.39773L4.91536 0.453C4.96036 0.191182 5.18727 0 5.45291 0H6.54709C6.81273 0 7.03964 0.191182 7.08464 0.453L7.24718 1.39773C7.64564 1.50545 8.02336 1.662 8.37327 1.86327L9.15545 1.31073C9.37227 1.15745 9.66818 1.18282 9.85582 1.37045L10.6295 2.14418C10.8172 2.33182 10.8425 2.62773 10.6893 2.84455L10.1367 3.62673C10.338 3.97664 10.4945 4.35436 10.6023 4.75282L11.547 4.91536ZM6 8.18182C7.20491 8.18182 8.18182 7.20491 8.18182 6C8.18182 4.79509 7.20491 3.81818 6 3.81818C4.79509 3.81818 3.81818 4.79509 3.81818 6C3.81818 7.20491 4.79509 8.18182 6 8.18182Z" fill="white"/>
</svg>
