<svg width="30" height="30" viewBox="0 0 48 48" fill="none" xmlns="http://www.w3.org/2000/svg">
<path fill-rule="evenodd" clip-rule="evenodd" d="M37.386 14.996C40.245 18.183 42 22.381 42 27C42 36.941 33.941 45 24 45C14.059 45 6 36.941 6 27C6 18.083 12.49 10.701 21 9.27V5H19C18.447 5 18 4.552 18 4C18 3.448 18.447 3 19 3H29C29.553 3 30 3.448 30 4C30 4.552 29.553 5 29 5H27V9.265C30.427 9.846 33.524 11.389 36.005 13.615L38.334 11.286C38.715 10.905 39.333 10.905 39.715 11.286C40.096 11.667 40.096 12.286 39.715 12.667L37.386 14.996ZM25 5H23V9.051C23.333 9.032 23.662 9 24 9C24.338 9 24.667 9.029 25 9.047V5ZM24 11C15.164 11 8 18.163 8 27C8 35.837 15.164 43 24 43C32.837 43 40 35.837 40 27C40 18.164 32.837 11 24 11ZM24 31C21.791 31 20 29.209 20 27C20 26.251 20.219 25.558 20.578 24.959L15.285 19.667C14.904 19.286 14.904 18.667 15.285 18.286C15.667 17.905 16.285 17.905 16.666 18.286L21.959 23.578C22.559 23.219 23.251 23 24 23C26.209 23 28 24.791 28 27C28 29.209 26.209 31 24 31ZM24 25C22.896 25 22 25.896 22 27C22 28.104 22.896 29 24 29C25.104 29 26 28.104 26 27C26 25.896 25.104 25 24 25Z" fill="#212529"/>
</svg>
