<svg width="10" height="11" viewBox="0 0 10 11" fill="none" xmlns="http://www.w3.org/2000/svg">
<path d="M10 9.8979L8.13163 7.90566C8.75729 7.0724 9.13381 6.01785 9.13381 4.86968C9.13381 2.18486 7.08479 0 4.56691 0C2.04902 0 0 2.18486 0 4.86968C0 7.5545 2.04902 9.73937 4.56691 9.73937C5.64368 9.73937 6.63267 9.33789 7.41412 8.67074L9.28249 10.663L10 9.8979ZM1.01487 4.86968C1.01487 2.78113 2.60821 1.08215 4.56691 1.08215C6.5256 1.08215 8.11894 2.78113 8.11894 4.86968C8.11894 6.95824 6.5256 8.65722 4.56691 8.65722C2.60821 8.65722 1.01487 6.95824 1.01487 4.86968Z" fill="white"/>
</svg>
