<svg width="25" height="25" viewBox="0 0 25 25" fill="none" xmlns="http://www.w3.org/2000/svg">
<path fill-rule="evenodd" clip-rule="evenodd" d="M12.375 24.75C5.54048 24.75 0 19.2095 0 12.375C0 5.54048 5.54048 0 12.375 0C19.2095 0 24.75 5.54048 24.75 12.375C24.75 19.2095 19.2095 24.75 12.375 24.75ZM12.375 22.5C17.9669 22.5 22.5 17.9669 22.5 12.375C22.5 6.78312 17.9669 2.25 12.375 2.25C6.78312 2.25 2.25 6.78312 2.25 12.375C2.25 17.9669 6.78312 22.5 12.375 22.5ZM8.6705 17.6705L12.375 13.966L16.0795 17.6705L17.6705 16.0795L13.966 12.375L17.6705 8.6705L16.0795 7.07951L12.375 10.784L8.6705 7.07951L7.07951 8.6705L10.784 12.375L7.07951 16.0795L8.6705 17.6705Z" fill="#FE4848"/>
</svg>
