<svg width="25" height="22" viewBox="0 0 25 22" fill="none" xmlns="http://www.w3.org/2000/svg">
<path d="M5.02832 3.82983L6.91223 5.72037C7.71768 4.85925 8.70816 4.19461 9.80804 3.77722C10.9079 3.35983 12.0881 3.20072 13.2584 3.31204C17.2458 3.68935 20.4748 7.38612 20.3949 11.1993H18.3713L21.6841 15.3537L24.969 11.1993L23.0611 11.1431C23.0611 11.1431 23.3964 7.7554 20.4189 4.1108C17.4413 0.466208 10.1691 -1.48052 5.02832 3.82983Z" fill="#212529"/>
<path d="M19.9908 18.5824L18.1069 16.6879C17.3039 17.5533 16.3143 18.2222 15.2142 18.6432C14.1141 19.0642 12.9327 19.226 11.7607 19.1163C7.76937 18.7149 4.54438 15.0221 4.6282 11.2089H6.6518L3.31904 7.05859L0.0341797 11.2089L1.94203 11.2651C1.94203 11.2651 1.60676 14.6569 4.58429 18.2974C7.56182 21.938 14.834 23.8888 19.9908 18.5824Z" fill="#212529"/>
<path d="M12.4966 15.473L9.31152 11.1982L12.5126 6.93945L15.6976 11.2142L12.4966 15.473Z" fill="#212529"/>
</svg>
