<svg width="10" height="12" viewBox="0 0 10 12" fill="none" xmlns="http://www.w3.org/2000/svg">
<path d="M10 10.5668L8.13163 8.57461C8.75729 7.74135 9.13381 6.68679 9.13381 5.53863C9.13381 2.85381 7.08479 0.668945 4.56691 0.668945C2.04902 0.668945 0 2.85381 0 5.53863C0 8.22345 2.04902 10.4083 4.56691 10.4083C5.64368 10.4083 6.63267 10.0068 7.41412 9.33969L9.28249 11.3319L10 10.5668ZM1.01487 5.53863C1.01487 3.45008 2.60821 1.7511 4.56691 1.7511C6.5256 1.7511 8.11894 3.45008 8.11894 5.53863C8.11894 7.62718 6.5256 9.32616 4.56691 9.32616C2.60821 9.32616 1.01487 7.62718 1.01487 5.53863Z" fill="#BB9233"/>
</svg>
