<svg width="24" height="24" viewBox="0 0 24 24" fill="none" xmlns="http://www.w3.org/2000/svg">
<path fill-rule="evenodd" clip-rule="evenodd" d="M22.25 18.6118C22.25 17.3448 21.482 16.1378 20.089 15.1878C18.263 13.9428 15.322 13.1118 12 13.1118C8.678 13.1118 5.737 13.9428 3.911 15.1878C2.518 16.1378 1.75 17.3448 1.75 18.6118V20.0628C1.75 20.5128 1.929 20.9458 2.248 21.2648C2.567 21.5828 2.999 21.7628 3.45 21.7628L20.55 21.7618C21.001 21.7628 21.433 21.5828 21.752 21.2648C22.071 20.9458 22.25 20.5128 22.25 20.0618V18.6118ZM20.75 18.6128V20.0628C20.75 20.1158 20.729 20.1658 20.691 20.2038C20.654 20.2408 20.603 20.2628 20.55 20.2628H3.45C3.397 20.2628 3.346 20.2408 3.309 20.2038C3.271 20.1658 3.25 20.1158 3.25 20.0628C3.25 20.0618 3.25 18.6128 3.25 18.6128C3.25 17.7818 3.843 17.0498 4.757 16.4278C6.389 15.3138 9.03 14.6118 12 14.6118C14.97 14.6118 17.611 15.3138 19.243 16.4278C20.157 17.0498 20.75 17.7818 20.75 18.6128Z" fill="#212529"/>
<path fill-rule="evenodd" clip-rule="evenodd" d="M12 1.25C8.964 1.25 6.5 3.714 6.5 6.75C6.5 9.786 8.964 12.25 12 12.25C15.036 12.25 17.5 9.786 17.5 6.75C17.5 3.714 15.036 1.25 12 1.25ZM12 2.75C14.208 2.75 16 4.542 16 6.75C16 8.958 14.208 10.75 12 10.75C9.792 10.75 8 8.958 8 6.75C8 4.542 9.792 2.75 12 2.75Z" fill="#212529"/>
</svg>
