<svg width="49" height="43" viewBox="0 0 49 43" fill="none" xmlns="http://www.w3.org/2000/svg">
<path d="M47.4692 40.4886L36.4737 21.5L24.3158 0.5L12.1579 21.5L1.16233 40.4886L0 42.4969H15.7381L17.2889 39.8161H4.65245L14.4826 22.8357L24.3127 5.85537L34.1428 22.8357L43.9729 39.8161H29.0242C26.7306 39.8161 24.7913 38.2696 24.2008 36.1653H36.713V34.8264C36.713 30.5961 33.2633 27.156 29.0211 27.156C25.2388 27.156 22.0844 29.8926 21.4472 33.4845H14.5944L25.8604 14.0248L24.3096 11.344L9.94822 36.1684H21.4535C22.0906 39.7603 25.245 42.5 29.0273 42.5H48.6316L47.4661 40.4886H47.4692ZM29.0304 29.8399C31.324 29.8399 33.2633 31.3864 33.8507 33.4907H24.207C24.7944 31.3864 26.7337 29.8399 29.0304 29.8399Z" fill="#BB9233"/>
</svg>
